<svg xmlns="http://www.w3.org/2000/svg" width="822" height="711" viewBox="0 0 822 711">
<g>
<path d="M 468.91 706.00 C440.80,702.75 415.60,690.15 402.47,672.79 C396.99,665.54 391.22,654.13 390.37,648.88 C389.79,645.30 389.73,645.25 384.14,644.74 C377.12,644.09 368.31,641.03 361.19,636.76 C351.73,631.10 341.39,620.35 321.07,595.06 C300.50,569.47 296.67,565.40 289.82,561.91 C279.82,556.81 280.50,556.87 226.00,555.95 C173.37,555.06 164.61,554.51 145.67,550.95 C92.25,540.89 42.45,503.53 19.45,456.23 C9.01,434.79 3.99,412.62 4.02,388.15 C4.05,357.13 13.18,333.69 32.94,313.94 L 41.50 305.39 L 39.33 296.82 C31.13,264.34 35.53,226.72 51.42,193.62 C67.85,159.37 99.27,128.01 133.00,112.16 C145.19,106.44 158.40,101.77 171.86,98.44 C177.09,97.14 181.73,95.45 182.16,94.67 C183.99,91.41 191.28,82.30 199.54,72.95 C227.96,40.81 264.62,18.95 303.39,11.04 C318.70,7.91 330.52,6.91 351.96,6.90 C380.23,6.90 392.65,8.39 406.79,13.49 L 413.84 16.03 L 419.11 13.96 C432.41,8.71 438.94,7.82 468.00,7.28 C492.71,6.82 496.97,6.99 510.00,8.93 C558.52,16.17 596.28,36.47 625.66,71.09 L 632.82 79.53 L 641.16 80.81 C701.95,90.15 750.25,131.73 769.94,191.68 C776.21,210.78 780.00,234.75 780.00,255.28 L 780.00 264.34 L 784.77 269.92 C802.63,290.82 814.80,319.20 819.12,350.00 C820.77,361.80 820.77,390.80 819.12,401.50 C817.39,412.66 811.65,434.32 807.94,443.66 C795.44,475.14 774.42,503.05 748.72,522.27 C728.26,537.58 706.64,547.57 676.63,555.59 C655.89,561.13 644.10,568.35 633.98,581.72 C631.14,585.47 623.64,599.27 615.97,614.83 C600.90,645.43 595.21,654.53 583.23,667.12 C558.34,693.27 530.37,705.28 491.69,706.43 C483.34,706.68 473.08,706.48 468.91,706.00 ZM 508.73 665.04 C525.30,661.01 537.42,653.72 550.36,639.95 C561.11,628.53 568.14,617.37 582.71,588.63 C595.87,562.65 602.57,552.36 612.22,543.31 C624.43,531.86 638.02,525.07 659.84,519.54 C711.67,506.40 746.60,478.97 765.79,436.36 C773.08,420.16 776.48,406.06 778.06,385.52 C779.75,363.63 776.41,339.85 769.39,323.76 C765.13,313.98 756.44,301.49 750.27,296.26 C740.32,287.82 741.00,289.17 740.99,277.75 C740.97,252.94 737.72,224.61 733.29,210.56 C716.93,158.62 676.23,125.00 619.50,116.57 C611.32,115.35 609.17,114.66 607.68,112.79 C599.07,101.97 587.49,89.02 582.41,84.53 C559.11,63.95 535.70,53.16 504.26,48.49 C493.05,46.82 456.06,46.40 442.50,47.79 L 435.50 48.50 L 435.50 263.67 C435.50,382.01 435.84,479.18 436.27,479.60 C436.69,480.02 439.16,478.85 441.77,477.00 C444.37,475.15 458.88,465.09 474.00,454.65 C514.90,426.41 524.35,419.35 533.08,410.52 C555.12,388.25 562.56,367.68 563.66,326.00 C563.94,315.27 563.79,304.75 563.32,302.60 C562.53,299.04 562.07,298.61 557.91,297.55 C548.16,295.08 536.66,286.08 529.83,275.57 C519.84,260.23 519.03,239.71 527.73,222.55 C533.41,211.34 549.64,199.07 562.89,195.99 C570.54,194.21 588.82,195.22 596.20,197.84 C619.05,205.93 633.25,227.04 631.67,250.53 C630.47,268.34 621.50,283.23 605.65,293.68 L 599.81 297.54 L 599.95 323.60 C600.27,384.32 592.74,406.63 561.86,436.52 C547.35,450.56 536.43,458.77 464.16,510.00 L 435.24 530.50 L 435.70 584.50 C436.21,643.37 436.26,643.88 442.06,651.77 C452.30,665.69 481.83,671.57 508.73,665.04 ZM 389.99 526.25 L 389.97 446.50 L 354.76 420.50 C335.39,406.20 311.36,388.53 301.35,381.24 C281.39,366.70 276.53,361.92 271.71,352.07 L 268.50 345.50 L 268.19 309.79 L 267.89 274.09 L 263.12 270.59 C257.50,266.46 250.29,258.90 247.30,254.00 C246.13,252.07 244.18,247.57 242.98,244.00 C241.15,238.59 240.86,235.96 241.25,228.32 C241.65,220.38 242.21,218.10 245.35,211.48 C252.50,196.43 266.33,186.13 282.33,183.94 C301.49,181.32 319.93,188.83 331.22,203.84 C337.69,212.44 340.42,221.07 340.31,232.50 C340.11,251.99 330.75,266.37 312.75,274.85 L 305.01 278.50 L 305.00 299.92 C305.00,325.97 305.93,332.26 310.86,339.42 C316.54,347.67 316.85,347.90 375.70,389.18 C381.86,393.50 387.18,397.48 387.51,398.02 C390.14,402.27 390.26,395.44 389.50,283.25 C389.07,219.59 388.44,140.73 388.11,108.00 L 387.50 48.50 L 379.50 47.70 C366.59,46.41 327.93,47.53 317.00,49.51 C291.12,54.20 266.28,66.34 245.87,84.28 C236.58,92.44 223.53,107.20 213.16,121.25 C207.92,128.37 206.04,130.18 203.11,130.96 C201.12,131.49 194.32,133.26 188.00,134.89 C149.58,144.78 120.79,162.80 100.71,189.50 C93.37,199.27 83.75,218.74 81.04,229.32 C75.41,251.34 75.80,273.18 82.22,295.39 L 84.50 303.29 L 104.50 309.63 C124.42,315.96 134.16,318.99 155.99,325.69 C172.40,330.72 182.23,336.07 189.12,343.73 C194.10,349.26 224.21,388.68 227.87,394.45 C233.70,403.66 231.52,413.62 222.56,418.64 C214.45,423.20 203.48,422.49 196.80,416.99 C194.87,415.40 185.59,404.01 176.16,391.68 C166.74,379.36 158.46,368.83 157.76,368.29 C157.07,367.75 141.65,362.47 123.50,356.54 C105.35,350.61 85.68,344.13 79.79,342.14 L 69.07 338.51 L 64.44 343.01 C51.41,355.66 44.17,376.24 45.42,397.10 C47.95,439.52 77.66,480.72 120.41,501.08 C145.44,513.01 168.47,515.94 237.29,515.98 C281.55,516.01 292.61,517.58 309.20,526.18 C323.08,533.37 329.62,539.88 357.83,574.50 C373.82,594.13 385.64,605.98 389.25,606.00 C389.66,606.00 389.99,570.11 389.99,526.25 Z" fill="rgba(0,0,0,1)"/>
</g>
</svg>